<svg width="24" height="24" viewBox="0 0 24 24" fill="none" xmlns="http://www.w3.org/2000/svg">
<path fill-rule="evenodd" clip-rule="evenodd" d="M12 2C6.47715 2 2 6.47715 2 12C2 17.5228 6.47715 22 12 22C17.5228 22 22 17.5228 22 12C22 6.47715 17.5228 2 12 2ZM4 12C4 16.4183 7.58172 20 12 20C16.4183 20 20 16.4183 20 12C20 7.58172 16.4183 4 12 4C7.58172 4 4 7.58172 4 12Z" fill="#C7CCD1"/>
<path fill-rule="evenodd" clip-rule="evenodd" d="M15.3416 9.43155C15.3416 11.3267 13.8334 12.8631 11.9728 12.8631C10.1123 12.8631 8.60408 11.3267 8.60408 9.43155C8.60408 7.53636 10.1123 6 11.9728 6C13.8334 6 15.3416 7.53636 15.3416 9.43155ZM13.6572 9.43155C13.6572 10.3791 12.9031 11.1473 11.9728 11.1473C11.0426 11.1473 10.2885 10.3791 10.2885 9.43155C10.2885 8.48396 11.0426 7.71578 11.9728 7.71578C12.9031 7.71578 13.6572 8.48396 13.6572 9.43155Z" fill="#C7CCD1"/>
<path d="M12.0272 13.721C9.56945 13.721 7.38496 14.9125 6 16.7594L7.19565 18C8.26174 16.4501 10.0283 15.4368 12.0272 15.4368C14.0012 15.4368 15.7487 16.4251 16.8186 17.9425L18 16.6878C16.6126 14.8818 14.453 13.721 12.0272 13.721Z" fill="#C7CCD1"/>
</svg>
