<svg width="24" height="24" viewBox="0 0 24 24" fill="none" xmlns="http://www.w3.org/2000/svg">
<path fill-rule="evenodd" clip-rule="evenodd" d="M6 5C5.44772 5 5 5.44772 5 6V10C5 10.5523 5.44772 11 6 11C6.55228 11 7 10.5523 7 10V8.41421L11.2929 12.7071C11.6834 13.0976 12.3166 13.0976 12.7071 12.7071C13.0976 12.3166 13.0976 11.6834 12.7071 11.2929L8.41421 7H10C10.5523 7 11 6.55228 11 6C11 5.44772 10.5523 5 10 5H6ZM15 5C14.4477 5 14 5.44772 14 6C14 6.55228 14.4477 7 15 7H17V17H7V15C7 14.4477 6.55228 14 6 14C5.44772 14 5 14.4477 5 15V18C5 18.5523 5.44772 19 6 19H18C18.5523 19 19 18.5523 19 18V6C19 5.44772 18.5523 5 18 5H15Z" fill="#4680FF"/>
</svg>
