<svg width="32" height="32" viewBox="0 0 32 32" fill="none" xmlns="http://www.w3.org/2000/svg">
<rect opacity="0.1" width="32" height="32" rx="5" fill="white"/>
<path d="M24.2837 12.533C22.8862 9.25805 19.6388 7 15.9648 7C10.9681 7 7 11.1223 7 16.0352C7 20.9901 11.0095 25 15.9648 25C20.8831 25 25 21.0263 25 16.0352C25 14.8252 24.759 13.6469 24.2837 12.533ZM23.4798 13.3494C22.5561 12.6183 21.3626 12.1082 20.2197 11.7836C19.8953 10.6396 19.3863 9.44582 18.6491 8.51963C20.8932 9.32362 22.6754 11.1055 23.4798 13.3494ZM20.2602 15.5081C20.5481 15.5116 20.7812 15.7465 20.7812 16.0352C20.7812 16.3238 20.5481 16.5587 20.2602 16.5622C20.2582 16.562 20.2562 16.5616 20.2542 16.5615C20.2453 16.561 20.2367 16.5613 20.228 16.5612C19.9494 16.5475 19.7268 16.3174 19.7266 16.0355C19.7266 16.0354 19.7266 16.0353 19.7266 16.0352C19.7266 16.035 19.7266 16.0349 19.7266 16.0348C19.7268 15.7566 19.9437 15.5287 20.2172 15.5097C20.2184 15.5097 20.2197 15.5099 20.2209 15.5099C20.2319 15.5099 20.243 15.5095 20.2542 15.5088C20.2562 15.5087 20.2582 15.5083 20.2602 15.5081ZM16.4922 8.14223C17.5028 8.476 18.4259 9.74314 19.0244 11.5015C18.2157 11.3469 17.3644 11.2539 16.4922 11.2272V8.14223ZM16.4922 12.2823C17.4909 12.3147 18.4565 12.4392 19.3512 12.6475C19.4931 13.2536 19.5984 13.8986 19.6604 14.5691C19.2429 14.7387 18.9138 15.0814 18.7626 15.5078H16.4922V12.2823ZM16.4922 16.5625H18.7626C18.9138 16.9889 19.243 17.3317 19.6605 17.5013C19.6014 18.1447 19.5025 18.7679 19.367 19.3585C18.7529 19.4981 18.1029 19.6001 17.4311 19.6608C17.2615 19.2432 16.9187 18.9139 16.4922 18.7626V16.5625ZM13.278 8.52902C12.9234 8.98278 12.6012 9.53069 12.3209 10.1653C12.3051 10.1648 12.2894 10.1641 12.2734 10.1641C11.2681 10.1641 10.5072 11.0982 10.73 12.0923C9.86102 12.421 9.11887 12.8346 8.53091 13.307C9.33209 11.0918 11.0799 9.33234 13.278 8.52902ZM12.8008 11.7461C12.8008 12.0369 12.5642 12.2734 12.2734 12.2734C11.9827 12.2734 11.7461 12.0369 11.7461 11.7461C11.7461 11.4553 11.9827 11.2188 12.2734 11.2188C12.5642 11.2188 12.8008 11.4553 12.8008 11.7461ZM11.313 13.0021C11.3602 13.0382 11.4093 13.0719 11.4604 13.1026C11.3315 13.8567 11.2513 14.6845 11.2269 15.5078H8.14054C8.45635 14.5297 9.62512 13.5962 11.313 13.0021ZM11.2267 16.5625C11.2524 17.4363 11.3414 18.2727 11.4855 19.0566C9.7218 18.4758 8.46978 17.5715 8.14079 16.5625H11.2267ZM8.52279 18.7162C9.44143 19.4373 10.6197 19.9261 11.7551 20.2391C12.1156 21.549 12.6417 22.6596 13.2848 23.4776C11.0759 22.6797 9.32098 20.925 8.52279 18.7162ZM15.4375 23.8561C14.1853 23.4359 13.354 21.7601 12.9406 20.5108C13.4294 20.6014 13.935 20.6701 14.4517 20.7155C14.5982 21.1951 14.967 21.5784 15.4375 21.7452V23.8561ZM15.4375 18.7626C15.011 18.9139 14.6682 19.2431 14.4987 19.6607C13.8434 19.6011 13.2157 19.5022 12.6267 19.3698C12.4303 18.4934 12.313 17.5456 12.282 16.5625H15.4375V18.7626ZM15.4375 15.5078H12.282C12.3056 14.7548 12.3786 14.0005 12.4946 13.3123C13.0257 13.2377 13.4731 12.8986 13.6986 12.4327C14.2641 12.3511 14.8464 12.3014 15.4375 12.2826V15.5078ZM15.4375 11.2275C14.8852 11.244 14.3397 11.2863 13.8063 11.3543C13.725 11.0362 13.5467 10.7567 13.3053 10.5484C13.8828 9.26164 14.6431 8.40927 15.4375 8.14374V11.2275ZM15.9648 20.7812C15.6762 20.7812 15.4413 20.5481 15.4378 20.2602C15.438 20.2582 15.4384 20.2562 15.4385 20.2542C15.439 20.2454 15.4387 20.2369 15.4388 20.2283C15.4523 19.9494 15.6827 19.7266 15.9648 19.7266C16.247 19.7266 16.4774 19.9494 16.4909 20.2283C16.491 20.2369 16.4906 20.2455 16.4912 20.2542C16.4913 20.2562 16.4917 20.2582 16.4919 20.2602C16.4884 20.5481 16.2535 20.7812 15.9648 20.7812ZM16.4922 23.8591V21.7452C16.9626 21.5784 17.3314 21.1951 17.478 20.7155C18.014 20.6685 18.5383 20.5965 19.0452 20.5013C18.6188 21.7611 17.755 23.4491 16.4922 23.8591ZM18.67 23.4771C19.4111 22.5483 19.9133 21.3613 20.2326 20.2269C21.3644 19.9128 22.5559 19.4197 23.4803 18.6959C22.6787 20.9137 20.9048 22.6766 18.67 23.4771ZM20.5098 19.0414C20.601 18.5577 20.6699 18.0583 20.7152 17.5484C21.195 17.4019 21.5783 17.026 21.7452 16.5555H23.8556C23.4381 17.7875 21.7527 18.6282 20.5098 19.0414ZM21.7452 15.5078C21.5783 15.0373 21.195 14.6685 20.7153 14.5219C20.6684 13.9936 20.5962 13.4759 20.5005 12.9748C21.7593 13.4049 23.4354 14.26 23.8556 15.5078H21.7452Z" fill="#8F99A3"/>
</svg>
