<svg width="40" height="40" viewBox="0 0 40 40" fill="none" xmlns="http://www.w3.org/2000/svg">
<path d="M20 40C31.0457 40 40 31.0457 40 20C40 8.95431 31.0457 0 20 0C8.95431 0 0 8.95431 0 20C0 31.0457 8.95431 40 20 40Z" fill="white" fill-opacity="0.15"/>
<path d="M20.72 17.12H19.28V29.36H20.72V17.12Z" fill="white"/>
<path d="M24.32 17.12H22.88V29.36H24.32V17.12Z" fill="white"/>
<path d="M27.92 17.12H26.48V29.36H27.92V17.12Z" fill="white"/>
<path d="M17.12 17.12H15.68V29.36H17.12V17.12Z" fill="white"/>
<path d="M13.52 17.12H12.08V29.36H13.52V17.12Z" fill="white"/>
<path fill-rule="evenodd" clip-rule="evenodd" d="M10.64 10.64C9.44701 10.64 8.47998 11.607 8.47998 12.8C8.47998 13.993 9.44701 14.96 10.64 14.96H30.8V13.52H10.64C10.2423 13.52 9.91998 13.1977 9.91998 12.8C9.91998 12.4024 10.2423 12.08 10.64 12.08H30.8V10.64H10.64Z" fill="white"/>
</svg>
